<svg xmlns="http://www.w3.org/2000/svg" viewBox="0 0 66.07 66.07"><defs><style>.cls-1{fill:#fff;}.cls-2{fill:none;}</style></defs><title>home</title><g id="Layer_2" data-name="Layer 2"><g id="Layer_1-2" data-name="Layer 1"><g id="Layer_2-2" data-name="Layer 2"><g id="Layer_9" data-name="Layer 9"><path class="cls-1" d="M37.8,56.85V42.64H28.26V56.9H14.34a2.47,2.47,0,0,1-2.74-2.73q0-8.58,0-17.16a1,1,0,0,1,.4-.88Q21.92,28,31.83,19.78c.3-.24.6-.46.87-.72s.41-.21.66,0c1.48,1.24,3,2.47,4.47,3.7L54.11,36.16a.88.88,0,0,1,.37.75q0,8.73,0,17.46A2.38,2.38,0,0,1,52,56.9c-4.65,0-9.31,0-14,0Z"/><path class="cls-1" d="M33,15.52l-5.78,4.82L7.55,36.76a1.31,1.31,0,0,1-2.15-.18L3.53,34.36a1.31,1.31,0,0,1,.19-2.18L16.64,21.42,29.56,10.65a5.33,5.33,0,0,1,3-1.47A4.56,4.56,0,0,1,36,10.25l8.45,7.06.49.39V10.84c0-1.2.39-1.59,1.59-1.6h6.39c1.13,0,1.55.42,1.55,1.54q0,7.18,0,14.36a.91.91,0,0,0,.36.79q3.64,3,7.26,6c.16.14.33.27.49.41a1.17,1.17,0,0,1,.17,1.71c-.73.92-1.48,1.83-2.27,2.71a1.21,1.21,0,0,1-1.87,0l-7.25-6L34.13,16.43Z"/></g></g><rect class="cls-2" width="66.07" height="66.07"/></g></g></svg>